<?xml version="1.0" encoding="UTF-8"?>
<svg id="Layer_1" xmlns="http://www.w3.org/2000/svg" version="1.1" viewBox="0 0 1080 1080">
  <!-- Generator: Adobe Illustrator 30.1.0, SVG Export Plug-In . SVG Version: 2.1.1 Build 136)  -->
  <path d="M651.08,117.54c64.15,140.31-128.34,395.1-206.62,511.02-25.59,36.76-50.28,74.54-80.46,107.86-10.29,11.1-21.2,21.6-32.43,31.83-11.63,10.32-23.74,21.6-38.15,28.39-16.56,8.09-37.93,8.57-50.12-7.47-15.93-21.9-5.84-51.79,7.25-72.32,10.83-17.13,25.51-31.26,41.44-43.54,9.06-7.83,19.08-14.61,29.99-19.61,84.44-37.88,173.56-10.81,242.01,45.78,17.6,14.51,34.14,30.26,47.88,48.54,4.54,5.92,8.02,12.7,12.24,18.91,8.12,12.12,17.36,23.61,27.17,34.56,34.14,37.42,74.75,70.21,121.21,90.37,11.83,4.91,24.77,8.94,37.05,9.32,5.63.15,10.6-.66,14.59-2.25,5.07-2.22,9.99-5.04,14.46-8.22,46.59-33.77,36.37-114.7,24.95-164.25-4.86-20.7-10.83-41.39-19.61-60.78-25.9-57.2-71.68-81.6-111.04-83.17-27.39-1.09-48.6,4.84-71.77,18.25-8.62,4.95-21.91,13.22-30.03,19.03-24.53,17.99-44.14,42.4-60.99,68.05-21.27,33.41-43.34,77.74-42.41,118.07.47,10.63,3.74,25.18,16.65,25.26,5.52.06,11.99-1.56,16.59-5.14,23.45-18.75,38.9-64.11,45.84-92.79,13.46-55.64,67.38-257.54,102.82-445.82l8.86,69.63c12.72,59.52,24.79,119.53,40.17,178.49,7.73,29.48,16.18,58.82,26.47,87.51,7.86,21.39,16.35,42.78,28.85,61.92,4.26,6.27,8.97,12.37,15.05,17.07-6.45-4.18-11.8-9.93-16.59-15.95-4.77-6.07-9.03-12.53-12.96-19.17-23.15-40.07-38.5-84.09-52.99-127.82-18.74-58.61-35.01-117.98-46.41-178.49l18.56-1.13c-.41,29.95-71.4,356.81-101.85,412.41-11.66,21.29-27.98,59.19-58.08,71.22-20.93,8.36-38.54-1.56-44.76-23.48-7.03-25.67-1.83-56.67,3.89-82.19,13.99-57.23,41.27-114.18,89.78-150.17,37.11-26.95,83.79-35.93,128.36-26.34,46.76,9.61,88.8,35.33,119.36,71.93,6.4,7.76,12.36,16.34,16.98,25.32,28.95,56.33,50,124.92,37.57,188.59-5.22,25.95-17.84,51.1-38.34,68.35-10.65,8.87-22.79,15.95-36.08,19.96-9.69,2.73-19.86,2.92-29.46,1.49-51.62-8.62-98.51-58.01-132.67-94.69-20.13-22.36-39.47-45.16-56.55-69.99-4.19-6.02-7.62-12.46-12.27-18.24-4.45-5.62-9.38-10.95-14.58-16.01-60.75-58.23-153.4-86.46-234.16-57.98-12.95,4.47-25.31,10.3-38.11,15.21-6.5,2.51-13.09,4.99-19.08,8.57-11.92,6.7-23.15,14.76-32.16,25.06-11.66,13.19-22.1,35.42-11.01,51.41,12.73,15.53,35.76,1.64,47.38-9.32,15.02-15.41,26.75-34.35,39.4-51.92,80.49-105.42,158.01-213.64,222.68-329.71,28.65-51.52,60.03-102.99,74.98-160.1,21.05-80.41,11.26-111.32,11.26-111.32Z"/>
</svg>